<svg xmlns="http://www.w3.org/2000/svg" width="1180" height="820" viewBox="0 0 1180 820" font-family="Inter, system-ui, -apple-system, Segoe UI, Roboto, sans-serif"><rect width="1180" height="820" fill="#0d1117"/><text x="40" y="48" fill="#c9d1d9" font-size="30" font-weight="700">Rust &amp; AI Crate Radar</text><text x="40" y="74" fill="#8b949e" font-size="15">28 tools mapped · Rust &amp; AI Weekly #2 · updated 2026-06-22</text><circle cx="710" cy="42" r="6" fill="#3fb950"/><text x="722" y="47" fill="#c9d1d9" font-size="14">Adopt</text><circle cx="828" cy="42" r="6" fill="#58a6ff"/><text x="840" y="47" fill="#c9d1d9" font-size="14">Trial</text><circle cx="946" cy="42" r="6" fill="#d29922"/><text x="958" y="47" fill="#c9d1d9" font-size="14">Assess</text><circle cx="1064" cy="42" r="6" fill="#f85149"/><text x="1076" y="47" fill="#c9d1d9" font-size="14">Hold</text><g><circle cx="316" cy="372" r="115.92" fill="none" stroke="#30363d" stroke-width="1"/><circle cx="316" cy="372" r="165.6" fill="none" stroke="#30363d" stroke-width="1"/><circle cx="316" cy="372" r="215.28" fill="none" stroke="#30363d" stroke-width="1"/><circle cx="316" cy="372" r="262.2" fill="none" stroke="#30363d" stroke-width="1"/><line x1="316" y1="109.8" x2="316" y2="634.2" stroke="#30363d" stroke-width="1"/><line x1="53.8" y1="372" x2="578.2" y2="372" stroke="#30363d" stroke-width="1"/></g><text x="126.69337254073746" y="178.69337254073753" fill="#8b949e" font-size="14" font-weight="600" text-anchor="start">Agentic &amp; LLM</text><text x="505.3066274592625" y="178.69337254073747" fill="#8b949e" font-size="14" font-weight="600" text-anchor="end">Inference &amp; Serving</text><text x="126.69337254073751" y="575.3066274592625" fill="#8b949e" font-size="14" font-weight="600" text-anchor="start">Data &amp; Search</text><text x="505.30662745926253" y="575.3066274592625" fill="#8b949e" font-size="14" font-weight="600" text-anchor="end">Dev Tools &amp; Editors</text><circle cx="275.0355196821089" cy="364.03731165214236" r="13.00162780240676" fill="#3fb950" stroke="none" stroke-width="0"/><text x="275.0355196821089" y="367.53731165214236" fill="#0d1117" font-size="10" font-weight="700" text-anchor="middle">1</text><circle cx="301.4017380289276" cy="296.8984527505329" r="10.206881811036624" fill="#3fb950" stroke="none" stroke-width="0"/><text x="301.4017380289276" y="300.3984527505329" fill="#0d1117" font-size="10" font-weight="700" text-anchor="middle">2</text><circle cx="184.65357104422202" cy="346.46884053544056" r="11.07247059043935" fill="#58a6ff" stroke="#ffffff" stroke-width="1.6"/><text x="184.65357104422202" y="349.96884053544056" fill="#0d1117" font-size="10" font-weight="700" text-anchor="middle">3</text><circle cx="210.84699909788594" cy="266.84699909788594" r="9.509359938629808" fill="#58a6ff" stroke="none" stroke-width="0"/><text x="210.84699909788594" y="270.34699909788594" fill="#0d1117" font-size="10" font-weight="700" text-anchor="middle">4</text><circle cx="290.46884053544045" cy="240.65357104422202" r="8.472528364097766" fill="#58a6ff" stroke="none" stroke-width="0"/><text x="290.46884053544045" y="244.15357104422202" fill="#0d1117" font-size="8.5" font-weight="700" text-anchor="middle">5</text><circle cx="135.88633257054207" cy="336.98944964513385" r="8.329473042464649" fill="#d29922" stroke="#ffffff" stroke-width="1.6"/><text x="135.88633257054207" y="340.48944964513385" fill="#0d1117" font-size="8.5" font-weight="700" text-anchor="middle">6</text><circle cx="175.71793420853825" cy="231.7179342085383" r="7.82" fill="#d29922" stroke="none" stroke-width="0"/><text x="175.71793420853825" y="235.2179342085383" fill="#0d1117" font-size="8.5" font-weight="700" text-anchor="middle">7</text><circle cx="280.9894496451336" cy="191.8863325705421" r="7.82" fill="#d29922" stroke="none" stroke-width="0"/><text x="280.9894496451336" y="195.3863325705421" fill="#0d1117" font-size="8.5" font-weight="700" text-anchor="middle">8</text><circle cx="147.18532705952362" cy="203.18532705952367" r="9.685086599069288" fill="#f85149" stroke="none" stroke-width="0"/><text x="147.18532705952362" y="206.68532705952367" fill="#0d1117" font-size="10" font-weight="700" text-anchor="middle">9</text><circle cx="323.96268834785764" cy="331.0355196821089" r="15.64" fill="#3fb950" stroke="none" stroke-width="0"/><text x="323.96268834785764" y="334.5355196821089" fill="#0d1117" font-size="10" font-weight="700" text-anchor="middle">10</text><circle cx="370.0987599295954" cy="317.9012400704046" r="12.330842788032589" fill="#3fb950" stroke="#ffffff" stroke-width="1.6"/><text x="370.0987599295954" y="321.4012400704046" fill="#0d1117" font-size="10" font-weight="700" text-anchor="middle">11</text><circle cx="356.9644803178912" cy="364.03731165214236" r="10.01621847420112" fill="#3fb950" stroke="none" stroke-width="0"/><text x="356.9644803178912" y="367.53731165214236" fill="#0d1117" font-size="10" font-weight="700" text-anchor="middle">12</text><circle cx="341.53115946455944" cy="240.653571044222" r="10.983640864334282" fill="#58a6ff" stroke="#ffffff" stroke-width="1.6"/><text x="341.53115946455944" y="244.153571044222" fill="#0d1117" font-size="10" font-weight="700" text-anchor="middle">13</text><circle cx="461.976600497882" cy="343.6250232683485" r="8.087061262233707" fill="#58a6ff" stroke="none" stroke-width="0"/><text x="461.976600497882" y="347.1250232683485" fill="#0d1117" font-size="8.5" font-weight="700" text-anchor="middle">14</text><circle cx="351.01055035486615" cy="191.88633257054204" r="11.98601187499368" fill="#d29922" stroke="#ffffff" stroke-width="1.6"/><text x="351.01055035486615" y="195.38633257054204" fill="#0d1117" font-size="10" font-weight="700" text-anchor="middle">15</text><circle cx="456.2820657914617" cy="231.71793420853825" r="10.01621847420112" fill="#d29922" stroke="none" stroke-width="0"/><text x="456.2820657914617" y="235.21793420853825" fill="#0d1117" font-size="10" font-weight="700" text-anchor="middle">16</text><circle cx="496.11366742945796" cy="336.98944964513385" r="7.82" fill="#d29922" stroke="none" stroke-width="0"/><text x="496.11366742945796" y="340.48944964513385" fill="#0d1117" font-size="8.5" font-weight="700" text-anchor="middle">17</text><circle cx="308.03731165214236" cy="412.9644803178912" r="15.64" fill="#3fb950" stroke="none" stroke-width="0"/><text x="308.03731165214236" y="416.4644803178912" fill="#0d1117" font-size="10" font-weight="700" text-anchor="middle">18</text><circle cx="261.9012400704046" cy="426.0987599295954" r="12.856158274982594" fill="#3fb950" stroke="none" stroke-width="0"/><text x="261.9012400704046" y="429.5987599295954" fill="#0d1117" font-size="10" font-weight="700" text-anchor="middle">19</text><circle cx="275.0355196821089" cy="379.9626883478577" r="11.55848246543303" fill="#3fb950" stroke="none" stroke-width="0"/><text x="275.0355196821089" y="383.4626883478577" fill="#0d1117" font-size="10" font-weight="700" text-anchor="middle">20</text><circle cx="290.46884053544056" cy="503.34642895577804" r="8.613709326052536" fill="#58a6ff" stroke="none" stroke-width="0"/><text x="290.46884053544056" y="506.84642895577804" fill="#0d1117" font-size="8.5" font-weight="700" text-anchor="middle">21</text><circle cx="170.02339950211805" cy="400.3749767316516" r="7.82" fill="#58a6ff" stroke="none" stroke-width="0"/><text x="170.02339950211805" y="403.8749767316516" fill="#0d1117" font-size="8.5" font-weight="700" text-anchor="middle">22</text><circle cx="181.3385845908339" cy="506.6614154091662" r="8.001406777111393" fill="#d29922" stroke="none" stroke-width="0"/><text x="181.3385845908339" y="510.1614154091662" fill="#0d1117" font-size="8.5" font-weight="700" text-anchor="middle">23</text><circle cx="356.98390903757235" cy="412.98390903757235" r="14.036655534957964" fill="#3fb950" stroke="none" stroke-width="0"/><text x="356.98390903757235" y="416.48390903757235" fill="#0d1117" font-size="10" font-weight="700" text-anchor="middle">24</text><circle cx="447.34642895577804" cy="397.5311594645595" r="11.5" fill="#58a6ff" stroke="none" stroke-width="0"/><text x="447.34642895577804" y="401.0311594645595" fill="#0d1117" font-size="10" font-weight="700" text-anchor="middle">25</text><circle cx="421.15300090211406" cy="477.15300090211406" r="7.82" fill="#58a6ff" stroke="none" stroke-width="0"/><text x="421.15300090211406" y="480.65300090211406" fill="#0d1117" font-size="8.5" font-weight="700" text-anchor="middle">26</text><circle cx="341.53115946455955" cy="503.34642895577804" r="7.82" fill="#58a6ff" stroke="none" stroke-width="0"/><text x="341.53115946455955" y="506.84642895577804" fill="#0d1117" font-size="8.5" font-weight="700" text-anchor="middle">27</text><circle cx="484.8146729404764" cy="540.8146729404764" r="12.549383027124033" fill="#f85149" stroke="none" stroke-width="0"/><text x="484.8146729404764" y="544.3146729404764" fill="#0d1117" font-size="10" font-weight="700" text-anchor="middle">28</text><text x="710" y="90" fill="#8b949e" font-size="12">↺ = returning (also in an earlier issue)</text><text x="710" y="108" fill="#c9d1d9" font-size="14" font-weight="700">Agentic &amp; LLM</text><circle cx="716" cy="124" r="5.5" fill="#3fb950"/><text x="716" y="127.5" fill="#0d1117" font-size="8" font-weight="700" text-anchor="middle">1</text><text x="728" y="128" fill="#c9d1d9" font-size="13.5">goose</text><text x="878" y="128" fill="#8b949e" font-size="12">Adopt</text><circle cx="716" cy="142" r="5.5" fill="#3fb950"/><text x="716" y="145.5" fill="#0d1117" font-size="8" font-weight="700" text-anchor="middle">2</text><text x="728" y="146" fill="#c9d1d9" font-size="13.5">rmcp</text><text x="878" y="146" fill="#8b949e" font-size="12">Adopt</text><circle cx="716" cy="160" r="5.5" fill="#58a6ff"/><text x="716" y="163.5" fill="#0d1117" font-size="8" font-weight="700" text-anchor="middle">3</text><text x="728" y="164" fill="#c9d1d9" font-size="13.5">rig ↺</text><text x="878" y="164" fill="#8b949e" font-size="12">Trial</text><circle cx="716" cy="178" r="5.5" fill="#58a6ff"/><text x="716" y="181.5" fill="#0d1117" font-size="8" font-weight="700" text-anchor="middle">4</text><text x="728" y="182" fill="#c9d1d9" font-size="13.5">async-openai</text><text x="878" y="182" fill="#8b949e" font-size="12">Trial</text><circle cx="716" cy="196" r="5.5" fill="#58a6ff"/><text x="716" y="199.5" fill="#0d1117" font-size="8" font-weight="700" text-anchor="middle">5</text><text x="728" y="200" fill="#c9d1d9" font-size="13.5">genai</text><text x="878" y="200" fill="#8b949e" font-size="12">Trial</text><circle cx="716" cy="214" r="5.5" fill="#d29922"/><text x="716" y="217.5" fill="#0d1117" font-size="8" font-weight="700" text-anchor="middle">6</text><text x="728" y="218" fill="#c9d1d9" font-size="13.5">swiftide ↺</text><text x="878" y="218" fill="#8b949e" font-size="12">Assess</text><circle cx="716" cy="232" r="5.5" fill="#d29922"/><text x="716" y="235.5" fill="#0d1117" font-size="8" font-weight="700" text-anchor="middle">7</text><text x="728" y="236" fill="#c9d1d9" font-size="13.5">AutoAgents</text><text x="878" y="236" fill="#8b949e" font-size="12">Assess</text><circle cx="716" cy="250" r="5.5" fill="#d29922"/><text x="716" y="253.5" fill="#0d1117" font-size="8" font-weight="700" text-anchor="middle">8</text><text x="728" y="254" fill="#c9d1d9" font-size="13.5">rs-graph-llm</text><text x="878" y="254" fill="#8b949e" font-size="12">Assess</text><circle cx="716" cy="268" r="5.5" fill="#f85149"/><text x="716" y="271.5" fill="#0d1117" font-size="8" font-weight="700" text-anchor="middle">9</text><text x="728" y="272" fill="#c9d1d9" font-size="13.5">kalosm</text><text x="878" y="272" fill="#8b949e" font-size="12">Hold</text><text x="710" y="298" fill="#c9d1d9" font-size="14" font-weight="700">Inference &amp; Serving</text><circle cx="716" cy="314" r="5.5" fill="#3fb950"/><text x="716" y="317.5" fill="#0d1117" font-size="8" font-weight="700" text-anchor="middle">10</text><text x="728" y="318" fill="#c9d1d9" font-size="13.5">ort</text><text x="878" y="318" fill="#8b949e" font-size="12">Adopt</text><circle cx="716" cy="332" r="5.5" fill="#3fb950"/><text x="716" y="335.5" fill="#0d1117" font-size="8" font-weight="700" text-anchor="middle">11</text><text x="728" y="336" fill="#c9d1d9" font-size="13.5">candle ↺</text><text x="878" y="336" fill="#8b949e" font-size="12">Adopt</text><circle cx="716" cy="350" r="5.5" fill="#3fb950"/><text x="716" y="353.5" fill="#0d1117" font-size="8" font-weight="700" text-anchor="middle">12</text><text x="728" y="354" fill="#c9d1d9" font-size="13.5">tract</text><text x="878" y="354" fill="#8b949e" font-size="12">Adopt</text><circle cx="716" cy="368" r="5.5" fill="#58a6ff"/><text x="716" y="371.5" fill="#0d1117" font-size="8" font-weight="700" text-anchor="middle">13</text><text x="728" y="372" fill="#c9d1d9" font-size="13.5">mistral.rs ↺</text><text x="878" y="372" fill="#8b949e" font-size="12">Trial</text><circle cx="716" cy="386" r="5.5" fill="#58a6ff"/><text x="716" y="389.5" fill="#0d1117" font-size="8" font-weight="700" text-anchor="middle">14</text><text x="728" y="390" fill="#c9d1d9" font-size="13.5">llama-cpp-2</text><text x="878" y="390" fill="#8b949e" font-size="12">Trial</text><circle cx="716" cy="404" r="5.5" fill="#d29922"/><text x="716" y="407.5" fill="#0d1117" font-size="8" font-weight="700" text-anchor="middle">15</text><text x="728" y="408" fill="#c9d1d9" font-size="13.5">burn ↺</text><text x="878" y="408" fill="#8b949e" font-size="12">Assess</text><circle cx="716" cy="422" r="5.5" fill="#d29922"/><text x="716" y="425.5" fill="#0d1117" font-size="8" font-weight="700" text-anchor="middle">16</text><text x="728" y="426" fill="#c9d1d9" font-size="13.5">luminal</text><text x="878" y="426" fill="#8b949e" font-size="12">Assess</text><circle cx="716" cy="440" r="5.5" fill="#d29922"/><text x="716" y="443.5" fill="#0d1117" font-size="8" font-weight="700" text-anchor="middle">17</text><text x="728" y="444" fill="#c9d1d9" font-size="13.5">cuTile Rust</text><text x="878" y="444" fill="#8b949e" font-size="12">Assess</text><text x="710" y="470" fill="#c9d1d9" font-size="14" font-weight="700">Data &amp; Search</text><circle cx="716" cy="486" r="5.5" fill="#3fb950"/><text x="716" y="489.5" fill="#0d1117" font-size="8" font-weight="700" text-anchor="middle">18</text><text x="728" y="490" fill="#c9d1d9" font-size="13.5">tantivy</text><text x="878" y="490" fill="#8b949e" font-size="12">Adopt</text><circle cx="716" cy="504" r="5.5" fill="#3fb950"/><text x="716" y="507.5" fill="#0d1117" font-size="8" font-weight="700" text-anchor="middle">19</text><text x="728" y="508" fill="#c9d1d9" font-size="13.5">qdrant</text><text x="878" y="508" fill="#8b949e" font-size="12">Adopt</text><circle cx="716" cy="522" r="5.5" fill="#3fb950"/><text x="716" y="525.5" fill="#0d1117" font-size="8" font-weight="700" text-anchor="middle">20</text><text x="728" y="526" fill="#c9d1d9" font-size="13.5">lancedb</text><text x="878" y="526" fill="#8b949e" font-size="12">Adopt</text><circle cx="716" cy="540" r="5.5" fill="#58a6ff"/><text x="716" y="543.5" fill="#0d1117" font-size="8" font-weight="700" text-anchor="middle">21</text><text x="728" y="544" fill="#c9d1d9" font-size="13.5">fastembed-rs</text><text x="878" y="544" fill="#8b949e" font-size="12">Trial</text><circle cx="716" cy="558" r="5.5" fill="#58a6ff"/><text x="716" y="561.5" fill="#0d1117" font-size="8" font-weight="700" text-anchor="middle">22</text><text x="728" y="562" fill="#c9d1d9" font-size="13.5">text-splitter</text><text x="878" y="562" fill="#8b949e" font-size="12">Trial</text><circle cx="716" cy="576" r="5.5" fill="#d29922"/><text x="716" y="579.5" fill="#0d1117" font-size="8" font-weight="700" text-anchor="middle">23</text><text x="728" y="580" fill="#c9d1d9" font-size="13.5">Stoolap</text><text x="878" y="580" fill="#8b949e" font-size="12">Assess</text><text x="710" y="606" fill="#c9d1d9" font-size="14" font-weight="700">Dev Tools &amp; Editors</text><circle cx="716" cy="622" r="5.5" fill="#3fb950"/><text x="716" y="625.5" fill="#0d1117" font-size="8" font-weight="700" text-anchor="middle">24</text><text x="728" y="626" fill="#c9d1d9" font-size="13.5">Zed</text><text x="878" y="626" fill="#8b949e" font-size="12">Adopt</text><circle cx="716" cy="640" r="5.5" fill="#58a6ff"/><text x="716" y="643.5" fill="#0d1117" font-size="8" font-weight="700" text-anchor="middle">25</text><text x="728" y="644" fill="#c9d1d9" font-size="13.5">aichat</text><text x="878" y="644" fill="#8b949e" font-size="12">Trial</text><circle cx="716" cy="658" r="5.5" fill="#58a6ff"/><text x="716" y="661.5" fill="#0d1117" font-size="8" font-weight="700" text-anchor="middle">26</text><text x="728" y="662" fill="#c9d1d9" font-size="13.5">Diplomat</text><text x="878" y="662" fill="#8b949e" font-size="12">Trial</text><circle cx="716" cy="676" r="5.5" fill="#58a6ff"/><text x="716" y="679.5" fill="#0d1117" font-size="8" font-weight="700" text-anchor="middle">27</text><text x="728" y="680" fill="#c9d1d9" font-size="13.5">Iroh</text><text x="878" y="680" fill="#8b949e" font-size="12">Trial</text><circle cx="716" cy="694" r="5.5" fill="#f85149"/><text x="716" y="697.5" fill="#0d1117" font-size="8" font-weight="700" text-anchor="middle">28</text><text x="728" y="698" fill="#c9d1d9" font-size="13.5">Tabby</text><text x="878" y="698" fill="#8b949e" font-size="12">Hold</text></svg>