<svg xmlns="http://www.w3.org/2000/svg" width="1180" height="820" viewBox="0 0 1180 820" font-family="Inter, system-ui, -apple-system, Segoe UI, Roboto, sans-serif"><rect width="1180" height="820" fill="#0d1117"/><text x="40" y="48" fill="#c9d1d9" font-size="30" font-weight="700">Rust &amp; AI Crate Radar</text><text x="40" y="74" fill="#8b949e" font-size="15">56 tools mapped · Rust &amp; AI Weekly #7 · updated 2026-08-11</text><circle cx="710" cy="42" r="6" fill="#3fb950"/><text x="722" y="47" fill="#c9d1d9" font-size="14">Adopt</text><circle cx="828" cy="42" r="6" fill="#58a6ff"/><text x="840" y="47" fill="#c9d1d9" font-size="14">Trial</text><circle cx="946" cy="42" r="6" fill="#d29922"/><text x="958" y="47" fill="#c9d1d9" font-size="14">Assess</text><circle cx="1064" cy="42" r="6" fill="#f85149"/><text x="1076" y="47" fill="#c9d1d9" font-size="14">Hold</text><g><circle cx="316" cy="372" r="115.92" fill="none" stroke="#30363d" stroke-width="1"/><circle cx="316" cy="372" r="165.6" fill="none" stroke="#30363d" stroke-width="1"/><circle cx="316" cy="372" r="215.28" fill="none" stroke="#30363d" stroke-width="1"/><circle cx="316" cy="372" r="262.2" fill="none" stroke="#30363d" stroke-width="1"/><line x1="316" y1="109.8" x2="316" y2="634.2" stroke="#30363d" stroke-width="1"/><line x1="53.8" y1="372" x2="578.2" y2="372" stroke="#30363d" stroke-width="1"/></g><text x="126.69337254073746" y="178.69337254073753" fill="#8b949e" font-size="14" font-weight="600" text-anchor="start">Agentic &amp; LLM</text><text x="505.3066274592625" y="178.69337254073747" fill="#8b949e" font-size="14" font-weight="600" text-anchor="end">Inference &amp; Serving</text><text x="126.69337254073751" y="575.3066274592625" fill="#8b949e" font-size="14" font-weight="600" text-anchor="start">Data &amp; Search</text><text x="505.30662745926253" y="575.3066274592625" fill="#8b949e" font-size="14" font-weight="600" text-anchor="end">Dev Tools &amp; Editors</text><circle cx="275.0355196821089" cy="364.03731165214236" r="13.00162780240676" fill="#3fb950" stroke="none" stroke-width="0"/><text x="275.0355196821089" y="367.53731165214236" fill="#0d1117" font-size="10" font-weight="700" text-anchor="middle">1</text><circle cx="301.4017380289276" cy="296.8984527505329" r="10.206881811036624" fill="#3fb950" stroke="none" stroke-width="0"/><text x="301.4017380289276" y="300.3984527505329" fill="#0d1117" font-size="10" font-weight="700" text-anchor="middle">2</text><circle cx="184.65357104422202" cy="346.46884053544056" r="11.07247059043935" fill="#58a6ff" stroke="#ffffff" stroke-width="1.6"/><text x="184.65357104422202" y="349.96884053544056" fill="#0d1117" font-size="10" font-weight="700" text-anchor="middle">3</text><circle cx="184.69792300306042" cy="302.18544726398557" r="9.509359938629808" fill="#58a6ff" stroke="none" stroke-width="0"/><text x="184.69792300306042" y="305.68544726398557" fill="#0d1117" font-size="10" font-weight="700" text-anchor="middle">4</text><circle cx="221.38571856469022" cy="277.38571856469025" r="8.472528364097766" fill="#58a6ff" stroke="none" stroke-width="0"/><text x="221.38571856469022" y="280.88571856469025" fill="#0d1117" font-size="8.5" font-weight="700" text-anchor="middle">5</text><circle cx="246.18544726398554" cy="240.69792300306042" r="7.82" fill="#58a6ff" stroke="none" stroke-width="0"/><text x="246.18544726398554" y="244.19792300306042" fill="#0d1117" font-size="8.5" font-weight="700" text-anchor="middle">6</text><circle cx="290.46884053544045" cy="240.65357104422202" r="7.82" fill="#58a6ff" stroke="none" stroke-width="0"/><text x="290.46884053544045" y="244.15357104422202" fill="#0d1117" font-size="8.5" font-weight="700" text-anchor="middle">7</text><circle cx="135.88633257054207" cy="336.98944964513385" r="8.329473042464649" fill="#d29922" stroke="#ffffff" stroke-width="1.6"/><text x="135.88633257054207" y="340.48944964513385" fill="#0d1117" font-size="8.5" font-weight="700" text-anchor="middle">8</text><circle cx="130.43587159616334" cy="301.8282805172596" r="7.82" fill="#d29922" stroke="none" stroke-width="0"/><text x="130.43587159616334" y="305.3282805172596" fill="#0d1117" font-size="8.5" font-weight="700" text-anchor="middle">9</text><circle cx="157.7881724275239" cy="279.07158966593107" r="7.82" fill="#d29922" stroke="none" stroke-width="0"/><text x="157.7881724275239" y="282.57158966593107" fill="#0d1117" font-size="8.5" font-weight="700" text-anchor="middle">10</text><circle cx="164.34378800936426" cy="244.09961168905176" r="7.82" fill="#d29922" stroke="none" stroke-width="0"/><text x="164.34378800936426" y="247.59961168905176" fill="#0d1117" font-size="8.5" font-weight="700" text-anchor="middle">11</text><circle cx="197.70815505131003" cy="231.7369925829512" r="7.82" fill="#d29922" stroke="#ffffff" stroke-width="1.6"/><text x="197.70815505131003" y="235.2369925829512" fill="#0d1117" font-size="8.5" font-weight="700" text-anchor="middle">12</text><circle cx="215.52325308644893" cy="200.9370311987127" r="7.82" fill="#d29922" stroke="none" stroke-width="0"/><text x="215.52325308644893" y="204.4370311987127" fill="#0d1117" font-size="8.5" font-weight="700" text-anchor="middle">13</text><circle cx="251.09994558691454" cy="200.37641546623453" r="7.82" fill="#d29922" stroke="none" stroke-width="0"/><text x="251.09994558691454" y="203.87641546623453" fill="#0d1117" font-size="8.5" font-weight="700" text-anchor="middle">14</text><circle cx="278.1456323780416" cy="177.2561610284381" r="7.82" fill="#d29922" stroke="none" stroke-width="0"/><text x="278.1456323780416" y="180.7561610284381" fill="#0d1117" font-size="8.5" font-weight="700" text-anchor="middle">15</text><circle cx="147.18532705952362" cy="203.18532705952367" r="9.685086599069288" fill="#f85149" stroke="none" stroke-width="0"/><text x="147.18532705952362" y="206.68532705952367" fill="#0d1117" font-size="10" font-weight="700" text-anchor="middle">16</text><circle cx="323.96268834785764" cy="331.0355196821089" r="15.64" fill="#3fb950" stroke="none" stroke-width="0"/><text x="323.96268834785764" y="334.5355196821089" fill="#0d1117" font-size="10" font-weight="700" text-anchor="middle">17</text><circle cx="370.0987599295954" cy="317.9012400704046" r="12.330842788032589" fill="#3fb950" stroke="#ffffff" stroke-width="1.6"/><text x="370.0987599295954" y="321.4012400704046" fill="#0d1117" font-size="10" font-weight="700" text-anchor="middle">18</text><circle cx="356.9644803178912" cy="364.03731165214236" r="10.01621847420112" fill="#3fb950" stroke="none" stroke-width="0"/><text x="356.9644803178912" y="367.53731165214236" fill="#0d1117" font-size="10" font-weight="700" text-anchor="middle">19</text><circle cx="341.53115946455944" cy="240.653571044222" r="10.983640864334282" fill="#58a6ff" stroke="#ffffff" stroke-width="1.6"/><text x="341.53115946455944" y="244.153571044222" fill="#0d1117" font-size="10" font-weight="700" text-anchor="middle">20</text><circle cx="461.976600497882" cy="343.6250232683485" r="8.087061262233707" fill="#58a6ff" stroke="none" stroke-width="0"/><text x="461.976600497882" y="347.1250232683485" fill="#0d1117" font-size="8.5" font-weight="700" text-anchor="middle">21</text><circle cx="351.01055035486615" cy="191.88633257054204" r="11.98601187499368" fill="#d29922" stroke="#ffffff" stroke-width="1.6"/><text x="351.01055035486615" y="195.38633257054204" fill="#0d1117" font-size="10" font-weight="700" text-anchor="middle">22</text><circle cx="425.9788791066017" cy="206.88560899819942" r="10.01621847420112" fill="#d29922" stroke="none" stroke-width="0"/><text x="425.9788791066017" y="210.38560899819942" fill="#0d1117" font-size="10" font-weight="700" text-anchor="middle">23</text><circle cx="468.7101379215317" cy="270.28330713679907" r="7.82" fill="#d29922" stroke="none" stroke-width="0"/><text x="468.7101379215317" y="273.78330713679907" fill="#0d1117" font-size="8.5" font-weight="700" text-anchor="middle">24</text><circle cx="510.74383897156196" cy="334.1456323780418" r="7.82" fill="#d29922" stroke="none" stroke-width="0"/><text x="510.74383897156196" y="337.6456323780418" fill="#0d1117" font-size="8.5" font-weight="700" text-anchor="middle">25</text><circle cx="308.03731165214236" cy="412.9644803178912" r="15.64" fill="#3fb950" stroke="none" stroke-width="0"/><text x="308.03731165214236" y="416.4644803178912" fill="#0d1117" font-size="10" font-weight="700" text-anchor="middle">26</text><circle cx="273.58744395054265" cy="435.67516581204666" r="12.856158274982594" fill="#3fb950" stroke="none" stroke-width="0"/><text x="273.58744395054265" y="439.17516581204666" fill="#0d1117" font-size="10" font-weight="700" text-anchor="middle">27</text><circle cx="281.2680913752473" cy="395.1341214815223" r="11.55848246543303" fill="#3fb950" stroke="none" stroke-width="0"/><text x="281.2680913752473" y="398.6341214815223" fill="#0d1117" font-size="10" font-weight="700" text-anchor="middle">28</text><circle cx="240.89845275053287" cy="386.5982619710724" r="7.82" fill="#3fb950" stroke="none" stroke-width="0"/><text x="240.89845275053287" y="390.0982619710724" fill="#0d1117" font-size="8.5" font-weight="700" text-anchor="middle">29</text><circle cx="290.46884053544056" cy="503.34642895577804" r="11.475783968911285" fill="#58a6ff" stroke="none" stroke-width="0"/><text x="290.46884053544056" y="506.84642895577804" fill="#0d1117" font-size="10" font-weight="700" text-anchor="middle">30</text><circle cx="210.84699909788594" cy="477.15300090211406" r="8.613709326052536" fill="#58a6ff" stroke="none" stroke-width="0"/><text x="210.84699909788594" y="480.65300090211406" fill="#0d1117" font-size="8.5" font-weight="700" text-anchor="middle">31</text><circle cx="184.65357104422202" cy="397.53115946455955" r="7.82" fill="#58a6ff" stroke="none" stroke-width="0"/><text x="184.65357104422202" y="401.03115946455955" fill="#0d1117" font-size="8.5" font-weight="700" text-anchor="middle">32</text><circle cx="280.98944964513373" cy="552.113667429458" r="8.001406777111393" fill="#d29922" stroke="none" stroke-width="0"/><text x="280.98944964513373" y="555.613667429458" fill="#0d1117" font-size="8.5" font-weight="700" text-anchor="middle">33</text><circle cx="222.86210002478254" cy="547.1669134101711" r="7.82" fill="#d29922" stroke="none" stroke-width="0"/><text x="222.86210002478254" y="550.6669134101711" fill="#0d1117" font-size="8.5" font-weight="700" text-anchor="middle">34</text><circle cx="186.2566536753426" cy="501.74334632465747" r="7.82" fill="#d29922" stroke="#ffffff" stroke-width="1.6"/><text x="186.2566536753426" y="505.24334632465747" fill="#0d1117" font-size="8.5" font-weight="700" text-anchor="middle">35</text><circle cx="140.83308658982898" cy="465.1378999752176" r="7.82" fill="#d29922" stroke="none" stroke-width="0"/><text x="140.83308658982898" y="468.6378999752176" fill="#0d1117" font-size="8.5" font-weight="700" text-anchor="middle">36</text><circle cx="135.88633257054207" cy="407.01055035486627" r="7.82" fill="#d29922" stroke="none" stroke-width="0"/><text x="135.88633257054207" y="410.51055035486627" fill="#0d1117" font-size="8.5" font-weight="700" text-anchor="middle">37</text><circle cx="356.9644803178912" cy="379.96268834785764" r="14.036655534957964" fill="#3fb950" stroke="none" stroke-width="0"/><text x="356.9644803178912" y="383.46268834785764" fill="#0d1117" font-size="10" font-weight="700" text-anchor="middle">38</text><circle cx="379.67516581204666" cy="414.4125560494574" r="7.82" fill="#3fb950" stroke="none" stroke-width="0"/><text x="379.67516581204666" y="417.9125560494574" fill="#0d1117" font-size="8.5" font-weight="700" text-anchor="middle">39</text><circle cx="339.13412148152224" cy="406.73190862475275" r="7.82" fill="#3fb950" stroke="none" stroke-width="0"/><text x="339.13412148152224" y="410.23190862475275" fill="#0d1117" font-size="8.5" font-weight="700" text-anchor="middle">40</text><circle cx="330.5982619710724" cy="447.10154724946716" r="7.82" fill="#3fb950" stroke="none" stroke-width="0"/><text x="330.5982619710724" y="450.60154724946716" fill="#0d1117" font-size="8.5" font-weight="700" text-anchor="middle">41</text><circle cx="447.34642895577804" cy="397.5311594645595" r="11.5" fill="#58a6ff" stroke="none" stroke-width="0"/><text x="447.34642895577804" y="401.0311594645595" fill="#0d1117" font-size="10" font-weight="700" text-anchor="middle">42</text><circle cx="456.9782536591283" cy="419.3227132850863" r="7.82" fill="#58a6ff" stroke="none" stroke-width="0"/><text x="456.9782536591283" y="422.8227132850863" fill="#0d1117" font-size="8.5" font-weight="700" text-anchor="middle">43</text><circle cx="436.14898229821017" cy="430.88927369007365" r="7.82" fill="#58a6ff" stroke="#ffffff" stroke-width="1.6"/><text x="436.14898229821017" y="434.38927369007365" fill="#0d1117" font-size="8.5" font-weight="700" text-anchor="middle">44</text><circle cx="439.7668807342379" cy="454.43825829526565" r="7.82" fill="#58a6ff" stroke="none" stroke-width="0"/><text x="439.7668807342379" y="457.93825829526565" fill="#0d1117" font-size="8.5" font-weight="700" text-anchor="middle">45</text><circle cx="416.64253527259217" cy="460.17485240670965" r="7.82" fill="#58a6ff" stroke="#ffffff" stroke-width="1.6"/><text x="416.64253527259217" y="463.67485240670965" fill="#0d1117" font-size="8.5" font-weight="700" text-anchor="middle">46</text><circle cx="413.9963087391402" cy="483.85271865691556" r="7.82" fill="#58a6ff" stroke="none" stroke-width="0"/><text x="413.9963087391402" y="487.35271865691556" fill="#0d1117" font-size="8.5" font-weight="700" text-anchor="middle">47</text><circle cx="390.17607205186494" cy="483.36262765396907" r="7.82" fill="#58a6ff" stroke="none" stroke-width="0"/><text x="390.17607205186494" y="486.86262765396907" fill="#0d1117" font-size="8.5" font-weight="700" text-anchor="middle">48</text><circle cx="381.44872249218577" cy="505.53191349479295" r="7.82" fill="#58a6ff" stroke="none" stroke-width="0"/><text x="381.44872249218577" y="509.03191349479295" fill="#0d1117" font-size="8.5" font-weight="700" text-anchor="middle">49</text><circle cx="358.5799023767815" cy="498.84903001845845" r="7.82" fill="#58a6ff" stroke="none" stroke-width="0"/><text x="358.5799023767815" y="502.34903001845845" fill="#0d1117" font-size="8.5" font-weight="700" text-anchor="middle">50</text><circle cx="344.3749767316516" cy="517.9766004978819" r="7.82" fill="#58a6ff" stroke="none" stroke-width="0"/><text x="344.3749767316516" y="521.4766004978819" fill="#0d1117" font-size="8.5" font-weight="700" text-anchor="middle">51</text><circle cx="496.11366742945796" cy="407.01055035486627" r="7.82" fill="#d29922" stroke="none" stroke-width="0"/><text x="496.11366742945796" y="410.51055035486627" fill="#0d1117" font-size="8.5" font-weight="700" text-anchor="middle">52</text><circle cx="481.11439100180064" cy="481.97887910660165" r="7.82" fill="#d29922" stroke="none" stroke-width="0"/><text x="481.11439100180064" y="485.47887910660165" fill="#0d1117" font-size="8.5" font-weight="700" text-anchor="middle">53</text><circle cx="417.71669286320093" cy="524.7101379215319" r="7.82" fill="#d29922" stroke="none" stroke-width="0"/><text x="417.71669286320093" y="528.2101379215319" fill="#0d1117" font-size="8.5" font-weight="700" text-anchor="middle">54</text><circle cx="353.8543676219583" cy="566.7438389715619" r="7.82" fill="#d29922" stroke="none" stroke-width="0"/><text x="353.8543676219583" y="570.2438389715619" fill="#0d1117" font-size="8.5" font-weight="700" text-anchor="middle">55</text><circle cx="484.8146729404764" cy="540.8146729404764" r="12.549383027124033" fill="#f85149" stroke="none" stroke-width="0"/><text x="484.8146729404764" y="544.3146729404764" fill="#0d1117" font-size="10" font-weight="700" text-anchor="middle">56</text><text x="710" y="90" fill="#8b949e" font-size="12">↺ = returning (also in an earlier issue)</text><text x="710" y="108" fill="#c9d1d9" font-size="14" font-weight="700">Agentic &amp; LLM</text><circle cx="716" cy="124" r="5.5" fill="#3fb950"/><text x="716" y="127.5" fill="#0d1117" font-size="8" font-weight="700" text-anchor="middle">1</text><text x="728" y="128" fill="#c9d1d9" font-size="13.5">goose</text><text x="878" y="128" fill="#8b949e" font-size="12">Adopt</text><circle cx="716" cy="142" r="5.5" fill="#3fb950"/><text x="716" y="145.5" fill="#0d1117" font-size="8" font-weight="700" text-anchor="middle">2</text><text x="728" y="146" fill="#c9d1d9" font-size="13.5">rmcp</text><text x="878" y="146" fill="#8b949e" font-size="12">Adopt</text><circle cx="716" cy="160" r="5.5" fill="#58a6ff"/><text x="716" y="163.5" fill="#0d1117" font-size="8" font-weight="700" text-anchor="middle">3</text><text x="728" y="164" fill="#c9d1d9" font-size="13.5">rig ↺</text><text x="878" y="164" fill="#8b949e" font-size="12">Trial</text><circle cx="716" cy="178" r="5.5" fill="#58a6ff"/><text x="716" y="181.5" fill="#0d1117" font-size="8" font-weight="700" text-anchor="middle">4</text><text x="728" y="182" fill="#c9d1d9" font-size="13.5">async-openai</text><text x="878" y="182" fill="#8b949e" font-size="12">Trial</text><circle cx="716" cy="196" r="5.5" fill="#58a6ff"/><text x="716" y="199.5" fill="#0d1117" font-size="8" font-weight="700" text-anchor="middle">5</text><text x="728" y="200" fill="#c9d1d9" font-size="13.5">genai</text><text x="878" y="200" fill="#8b949e" font-size="12">Trial</text><circle cx="716" cy="214" r="5.5" fill="#58a6ff"/><text x="716" y="217.5" fill="#0d1117" font-size="8" font-weight="700" text-anchor="middle">6</text><text x="728" y="218" fill="#c9d1d9" font-size="13.5">agent-client-protocol</text><text x="878" y="218" fill="#8b949e" font-size="12">Trial</text><circle cx="716" cy="232" r="5.5" fill="#58a6ff"/><text x="716" y="235.5" fill="#0d1117" font-size="8" font-weight="700" text-anchor="middle">7</text><text x="728" y="236" fill="#c9d1d9" font-size="13.5">copper-rs</text><text x="878" y="236" fill="#8b949e" font-size="12">Trial</text><circle cx="716" cy="250" r="5.5" fill="#d29922"/><text x="716" y="253.5" fill="#0d1117" font-size="8" font-weight="700" text-anchor="middle">8</text><text x="728" y="254" fill="#c9d1d9" font-size="13.5">swiftide ↺</text><text x="878" y="254" fill="#8b949e" font-size="12">Assess</text><circle cx="716" cy="268" r="5.5" fill="#d29922"/><text x="716" y="271.5" fill="#0d1117" font-size="8" font-weight="700" text-anchor="middle">9</text><text x="728" y="272" fill="#c9d1d9" font-size="13.5">AutoAgents</text><text x="878" y="272" fill="#8b949e" font-size="12">Assess</text><circle cx="716" cy="286" r="5.5" fill="#d29922"/><text x="716" y="289.5" fill="#0d1117" font-size="8" font-weight="700" text-anchor="middle">10</text><text x="728" y="290" fill="#c9d1d9" font-size="13.5">rs-graph-llm</text><text x="878" y="290" fill="#8b949e" font-size="12">Assess</text><circle cx="716" cy="304" r="5.5" fill="#d29922"/><text x="716" y="307.5" fill="#0d1117" font-size="8" font-weight="700" text-anchor="middle">11</text><text x="728" y="308" fill="#c9d1d9" font-size="13.5">Grok Build</text><text x="878" y="308" fill="#8b949e" font-size="12">Assess</text><circle cx="716" cy="322" r="5.5" fill="#d29922"/><text x="716" y="325.5" fill="#0d1117" font-size="8" font-weight="700" text-anchor="middle">12</text><text x="728" y="326" fill="#c9d1d9" font-size="13.5">cochlea ↺</text><text x="878" y="326" fill="#8b949e" font-size="12">Assess</text><circle cx="716" cy="340" r="5.5" fill="#d29922"/><text x="716" y="343.5" fill="#0d1117" font-size="8" font-weight="700" text-anchor="middle">13</text><text x="728" y="344" fill="#c9d1d9" font-size="13.5">crimson-crab</text><text x="878" y="344" fill="#8b949e" font-size="12">Assess</text><circle cx="716" cy="358" r="5.5" fill="#d29922"/><text x="716" y="361.5" fill="#0d1117" font-size="8" font-weight="700" text-anchor="middle">14</text><text x="728" y="362" fill="#c9d1d9" font-size="13.5">okf-rs</text><text x="878" y="362" fill="#8b949e" font-size="12">Assess</text><circle cx="716" cy="376" r="5.5" fill="#d29922"/><text x="716" y="379.5" fill="#0d1117" font-size="8" font-weight="700" text-anchor="middle">15</text><text x="728" y="380" fill="#c9d1d9" font-size="13.5">BitFun</text><text x="878" y="380" fill="#8b949e" font-size="12">Assess</text><circle cx="716" cy="394" r="5.5" fill="#f85149"/><text x="716" y="397.5" fill="#0d1117" font-size="8" font-weight="700" text-anchor="middle">16</text><text x="728" y="398" fill="#c9d1d9" font-size="13.5">kalosm</text><text x="878" y="398" fill="#8b949e" font-size="12">Hold</text><text x="710" y="424" fill="#c9d1d9" font-size="14" font-weight="700">Inference &amp; Serving</text><circle cx="716" cy="440" r="5.5" fill="#3fb950"/><text x="716" y="443.5" fill="#0d1117" font-size="8" font-weight="700" text-anchor="middle">17</text><text x="728" y="444" fill="#c9d1d9" font-size="13.5">ort</text><text x="878" y="444" fill="#8b949e" font-size="12">Adopt</text><circle cx="716" cy="458" r="5.5" fill="#3fb950"/><text x="716" y="461.5" fill="#0d1117" font-size="8" font-weight="700" text-anchor="middle">18</text><text x="728" y="462" fill="#c9d1d9" font-size="13.5">candle ↺</text><text x="878" y="462" fill="#8b949e" font-size="12">Adopt</text><circle cx="716" cy="476" r="5.5" fill="#3fb950"/><text x="716" y="479.5" fill="#0d1117" font-size="8" font-weight="700" text-anchor="middle">19</text><text x="728" y="480" fill="#c9d1d9" font-size="13.5">tract</text><text x="878" y="480" fill="#8b949e" font-size="12">Adopt</text><circle cx="716" cy="494" r="5.5" fill="#58a6ff"/><text x="716" y="497.5" fill="#0d1117" font-size="8" font-weight="700" text-anchor="middle">20</text><text x="728" y="498" fill="#c9d1d9" font-size="13.5">mistral.rs ↺</text><text x="878" y="498" fill="#8b949e" font-size="12">Trial</text><circle cx="716" cy="512" r="5.5" fill="#58a6ff"/><text x="716" y="515.5" fill="#0d1117" font-size="8" font-weight="700" text-anchor="middle">21</text><text x="728" y="516" fill="#c9d1d9" font-size="13.5">llama-cpp-2</text><text x="878" y="516" fill="#8b949e" font-size="12">Trial</text><circle cx="716" cy="530" r="5.5" fill="#d29922"/><text x="716" y="533.5" fill="#0d1117" font-size="8" font-weight="700" text-anchor="middle">22</text><text x="728" y="534" fill="#c9d1d9" font-size="13.5">burn ↺</text><text x="878" y="534" fill="#8b949e" font-size="12">Assess</text><circle cx="716" cy="548" r="5.5" fill="#d29922"/><text x="716" y="551.5" fill="#0d1117" font-size="8" font-weight="700" text-anchor="middle">23</text><text x="728" y="552" fill="#c9d1d9" font-size="13.5">luminal</text><text x="878" y="552" fill="#8b949e" font-size="12">Assess</text><circle cx="716" cy="566" r="5.5" fill="#d29922"/><text x="716" y="569.5" fill="#0d1117" font-size="8" font-weight="700" text-anchor="middle">24</text><text x="728" y="570" fill="#c9d1d9" font-size="13.5">cuTile Rust</text><text x="878" y="570" fill="#8b949e" font-size="12">Assess</text><circle cx="716" cy="584" r="5.5" fill="#d29922"/><text x="716" y="587.5" fill="#0d1117" font-size="8" font-weight="700" text-anchor="middle">25</text><text x="728" y="588" fill="#c9d1d9" font-size="13.5">flodl</text><text x="878" y="588" fill="#8b949e" font-size="12">Assess</text><text x="710" y="614" fill="#c9d1d9" font-size="14" font-weight="700">Data &amp; Search</text><circle cx="716" cy="630" r="5.5" fill="#3fb950"/><text x="716" y="633.5" fill="#0d1117" font-size="8" font-weight="700" text-anchor="middle">26</text><text x="728" y="634" fill="#c9d1d9" font-size="13.5">tantivy</text><text x="878" y="634" fill="#8b949e" font-size="12">Adopt</text><circle cx="716" cy="648" r="5.5" fill="#3fb950"/><text x="716" y="651.5" fill="#0d1117" font-size="8" font-weight="700" text-anchor="middle">27</text><text x="728" y="652" fill="#c9d1d9" font-size="13.5">qdrant</text><text x="878" y="652" fill="#8b949e" font-size="12">Adopt</text><circle cx="716" cy="666" r="5.5" fill="#3fb950"/><text x="716" y="669.5" fill="#0d1117" font-size="8" font-weight="700" text-anchor="middle">28</text><text x="728" y="670" fill="#c9d1d9" font-size="13.5">lancedb</text><text x="878" y="670" fill="#8b949e" font-size="12">Adopt</text><circle cx="716" cy="684" r="5.5" fill="#3fb950"/><text x="716" y="687.5" fill="#0d1117" font-size="8" font-weight="700" text-anchor="middle">29</text><text x="728" y="688" fill="#c9d1d9" font-size="13.5">image-png</text><text x="878" y="688" fill="#8b949e" font-size="12">Adopt</text><circle cx="716" cy="702" r="5.5" fill="#58a6ff"/><text x="716" y="705.5" fill="#0d1117" font-size="8" font-weight="700" text-anchor="middle">30</text><text x="728" y="706" fill="#c9d1d9" font-size="13.5">SeaORM</text><text x="878" y="706" fill="#8b949e" font-size="12">Trial</text><circle cx="716" cy="720" r="5.5" fill="#58a6ff"/><text x="716" y="723.5" fill="#0d1117" font-size="8" font-weight="700" text-anchor="middle">31</text><text x="728" y="724" fill="#c9d1d9" font-size="13.5">fastembed-rs</text><text x="878" y="724" fill="#8b949e" font-size="12">Trial</text><circle cx="716" cy="738" r="5.5" fill="#58a6ff"/><text x="716" y="741.5" fill="#0d1117" font-size="8" font-weight="700" text-anchor="middle">32</text><text x="728" y="742" fill="#c9d1d9" font-size="13.5">text-splitter</text><text x="878" y="742" fill="#8b949e" font-size="12">Trial</text><circle cx="716" cy="756" r="5.5" fill="#d29922"/><text x="716" y="759.5" fill="#0d1117" font-size="8" font-weight="700" text-anchor="middle">33</text><text x="728" y="760" fill="#c9d1d9" font-size="13.5">Stoolap</text><text x="878" y="760" fill="#8b949e" font-size="12">Assess</text><circle cx="716" cy="774" r="5.5" fill="#d29922"/><text x="716" y="777.5" fill="#0d1117" font-size="8" font-weight="700" text-anchor="middle">34</text><text x="728" y="778" fill="#c9d1d9" font-size="13.5">AimDB</text><text x="878" y="778" fill="#8b949e" font-size="12">Assess</text><circle cx="716" cy="792" r="5.5" fill="#d29922"/><text x="716" y="795.5" fill="#0d1117" font-size="8" font-weight="700" text-anchor="middle">35</text><text x="728" y="796" fill="#c9d1d9" font-size="13.5">GuardianDB ↺</text><text x="878" y="796" fill="#8b949e" font-size="12">Assess</text><circle cx="716" cy="810" r="5.5" fill="#d29922"/><text x="716" y="813.5" fill="#0d1117" font-size="8" font-weight="700" text-anchor="middle">36</text><text x="728" y="814" fill="#c9d1d9" font-size="13.5">Turso Database</text><text x="878" y="814" fill="#8b949e" font-size="12">Assess</text><circle cx="716" cy="828" r="5.5" fill="#d29922"/><text x="716" y="831.5" fill="#0d1117" font-size="8" font-weight="700" text-anchor="middle">37</text><text x="728" y="832" fill="#c9d1d9" font-size="13.5">FalkorDB (Rust engine)</text><text x="878" y="832" fill="#8b949e" font-size="12">Assess</text><text x="710" y="858" fill="#c9d1d9" font-size="14" font-weight="700">Dev Tools &amp; Editors</text><circle cx="716" cy="874" r="5.5" fill="#3fb950"/><text x="716" y="877.5" fill="#0d1117" font-size="8" font-weight="700" text-anchor="middle">38</text><text x="728" y="878" fill="#c9d1d9" font-size="13.5">Zed</text><text x="878" y="878" fill="#8b949e" font-size="12">Adopt</text><circle cx="716" cy="892" r="5.5" fill="#3fb950"/><text x="716" y="895.5" fill="#0d1117" font-size="8" font-weight="700" text-anchor="middle">39</text><text x="728" y="896" fill="#c9d1d9" font-size="13.5">curve25519-dalek</text><text x="878" y="896" fill="#8b949e" font-size="12">Adopt</text><circle cx="716" cy="910" r="5.5" fill="#3fb950"/><text x="716" y="913.5" fill="#0d1117" font-size="8" font-weight="700" text-anchor="middle">40</text><text x="728" y="914" fill="#c9d1d9" font-size="13.5">cargo-rdme</text><text x="878" y="914" fill="#8b949e" font-size="12">Adopt</text><circle cx="716" cy="928" r="5.5" fill="#3fb950"/><text x="716" y="931.5" fill="#0d1117" font-size="8" font-weight="700" text-anchor="middle">41</text><text x="728" y="932" fill="#c9d1d9" font-size="13.5">syn</text><text x="878" y="932" fill="#8b949e" font-size="12">Adopt</text><circle cx="716" cy="946" r="5.5" fill="#58a6ff"/><text x="716" y="949.5" fill="#0d1117" font-size="8" font-weight="700" text-anchor="middle">42</text><text x="728" y="950" fill="#c9d1d9" font-size="13.5">aichat</text><text x="878" y="950" fill="#8b949e" font-size="12">Trial</text><circle cx="716" cy="964" r="5.5" fill="#58a6ff"/><text x="716" y="967.5" fill="#0d1117" font-size="8" font-weight="700" text-anchor="middle">43</text><text x="728" y="968" fill="#c9d1d9" font-size="13.5">Diplomat</text><text x="878" y="968" fill="#8b949e" font-size="12">Trial</text><circle cx="716" cy="982" r="5.5" fill="#58a6ff"/><text x="716" y="985.5" fill="#0d1117" font-size="8" font-weight="700" text-anchor="middle">44</text><text x="728" y="986" fill="#c9d1d9" font-size="13.5">Iroh ↺</text><text x="878" y="986" fill="#8b949e" font-size="12">Trial</text><circle cx="716" cy="1000" r="5.5" fill="#58a6ff"/><text x="716" y="1003.5" fill="#0d1117" font-size="8" font-weight="700" text-anchor="middle">45</text><text x="728" y="1004" fill="#c9d1d9" font-size="13.5">Slint</text><text x="878" y="1004" fill="#8b949e" font-size="12">Trial</text><circle cx="716" cy="1018" r="5.5" fill="#58a6ff"/><text x="716" y="1021.5" fill="#0d1117" font-size="8" font-weight="700" text-anchor="middle">46</text><text x="728" y="1022" fill="#c9d1d9" font-size="13.5">kache ↺</text><text x="878" y="1022" fill="#8b949e" font-size="12">Trial</text><circle cx="716" cy="1036" r="5.5" fill="#58a6ff"/><text x="716" y="1039.5" fill="#0d1117" font-size="8" font-weight="700" text-anchor="middle">47</text><text x="728" y="1040" fill="#c9d1d9" font-size="13.5">hotpath</text><text x="878" y="1040" fill="#8b949e" font-size="12">Trial</text><circle cx="716" cy="1054" r="5.5" fill="#58a6ff"/><text x="716" y="1057.5" fill="#0d1117" font-size="8" font-weight="700" text-anchor="middle">48</text><text x="728" y="1058" fill="#c9d1d9" font-size="13.5">Sōzu</text><text x="878" y="1058" fill="#8b949e" font-size="12">Trial</text><circle cx="716" cy="1072" r="5.5" fill="#58a6ff"/><text x="716" y="1075.5" fill="#0d1117" font-size="8" font-weight="700" text-anchor="middle">49</text><text x="728" y="1076" fill="#c9d1d9" font-size="13.5">apalis</text><text x="878" y="1076" fill="#8b949e" font-size="12">Trial</text><circle cx="716" cy="1090" r="5.5" fill="#58a6ff"/><text x="716" y="1093.5" fill="#0d1117" font-size="8" font-weight="700" text-anchor="middle">50</text><text x="728" y="1094" fill="#c9d1d9" font-size="13.5">bullmq-official</text><text x="878" y="1094" fill="#8b949e" font-size="12">Trial</text><circle cx="716" cy="1108" r="5.5" fill="#58a6ff"/><text x="716" y="1111.5" fill="#0d1117" font-size="8" font-weight="700" text-anchor="middle">51</text><text x="728" y="1112" fill="#c9d1d9" font-size="13.5">webrtc</text><text x="878" y="1112" fill="#8b949e" font-size="12">Trial</text><circle cx="716" cy="1126" r="5.5" fill="#d29922"/><text x="716" y="1129.5" fill="#0d1117" font-size="8" font-weight="700" text-anchor="middle">52</text><text x="728" y="1130" fill="#c9d1d9" font-size="13.5">Test That!</text><text x="878" y="1130" fill="#8b949e" font-size="12">Assess</text><circle cx="716" cy="1144" r="5.5" fill="#d29922"/><text x="716" y="1147.5" fill="#0d1117" font-size="8" font-weight="700" text-anchor="middle">53</text><text x="728" y="1148" fill="#c9d1d9" font-size="13.5">rama</text><text x="878" y="1148" fill="#8b949e" font-size="12">Assess</text><circle cx="716" cy="1162" r="5.5" fill="#d29922"/><text x="716" y="1165.5" fill="#0d1117" font-size="8" font-weight="700" text-anchor="middle">54</text><text x="728" y="1166" fill="#c9d1d9" font-size="13.5">Topcoat</text><text x="878" y="1166" fill="#8b949e" font-size="12">Assess</text><circle cx="716" cy="1180" r="5.5" fill="#d29922"/><text x="716" y="1183.5" fill="#0d1117" font-size="8" font-weight="700" text-anchor="middle">55</text><text x="728" y="1184" fill="#c9d1d9" font-size="13.5">amtr</text><text x="878" y="1184" fill="#8b949e" font-size="12">Assess</text><circle cx="716" cy="1198" r="5.5" fill="#f85149"/><text x="716" y="1201.5" fill="#0d1117" font-size="8" font-weight="700" text-anchor="middle">56</text><text x="728" y="1202" fill="#c9d1d9" font-size="13.5">Tabby</text><text x="878" y="1202" fill="#8b949e" font-size="12">Hold</text></svg>